# xmcd
#
# Track frame offsets:
#	150
#	9952
#	21739
#	33961
#	44032
#	56025
#	68541
#	82158
#	98729
#	111813
#	128371
#	143236
#	157088
#	171093
#	183529
#	193898
#	205718
#	222816
#	237320
#	249013
#	263592
#	282622
#
# Disc length: 3940 seconds
#
# Revision: 0
# Processed by: cddbd v1.5.2PL0 Copyright (c) Steve Scherf et al.
# Submitted via: SynApp - FreeCDDB Version: 2.2
#
DISCID=3c0f6216
DTITLE=Doris Day - The Magic Of Doris Day
DYEAR=2007
DGENRE=Blues
TTITLE0=Doris Day - Whatever Will Be, Will Be (Que
TTITLE1=Doris Day - Perhaps, Perhaps, Perhaps (Qui
TTITLE2=Doris Day - Move Over Darling
TTITLE3=Doris Day - Pillow Talk
TTITLE4=Doris Day - Teacher's Pet
TTITLE5=Doris Day - Bewitched
TTITLE6=Doris Day - When I Fall in Love
TTITLE7=Doris Day - It's Magic
TTITLE8=Doris Day - Lullaby of Broadway (Second Re
TTITLE9=Doris Day - Secret Love
TTITLE10=Doris Day - The Deadwood Stage
TTITLE11=Doris Day - The Black Hills of Dakota
TTITLE12=Doris Day - A Very Precious Love
TTITLE13=Doris Day - Everybody Loves A Lover
TTITLE14=Doris Day - Love Me or Leave Me
TTITLE15=Doris Day - Fly Me to the Moon
TTITLE16=Doris Day - Dream A Little Dream of Me
TTITLE17=Doris Day - Close Your Eyes (Version From
TTITLE18=Doris Day - You'll Never Walk Alone
TTITLE19=Doris Day - Sentimental Journey
TTITLE20=Doris Day - Medley- Secret Love Etc
TTITLE21=Doris Day - The Way We Were
EXTD=
EXTT0=
EXTT1=
EXTT2=
EXTT3=
EXTT4=
EXTT5=
EXTT6=
EXTT7=
EXTT8=
EXTT9=
EXTT10=
EXTT11=
EXTT12=
EXTT13=
EXTT14=
EXTT15=
EXTT16=
EXTT17=
EXTT18=
EXTT19=
EXTT20=
EXTT21=
PLAYORDER=
